<svg xmlns="http://www.w3.org/2000/svg" width="15.699" height="12.335" viewBox="0 0 15.699 12.335">
  <g id="black-back-closed-envelope-shape" opacity="0.75">
    <g id="Group_81" data-name="Group 81" transform="translate(0 0)">
      <path id="Path_33" data-name="Path 33" d="M30.76,328.321a1.342,1.342,0,0,0,.919-.347l-4.448-4.448-.308.221q-.5.368-.81.574a4.993,4.993,0,0,1-.828.421,2.523,2.523,0,0,1-.964.215H24.3a2.522,2.522,0,0,1-.964-.215,4.977,4.977,0,0,1-.828-.421q-.311-.206-.81-.574l-.307-.223-4.449,4.449a1.342,1.342,0,0,0,.919.347Z" transform="translate(-16.463 -315.986)" fill="#2a2a2a"/>
      <path id="Path_34" data-name="Path 34" d="M.885,199.317A4.646,4.646,0,0,1,0,198.555v6.767l3.92-3.92Q2.744,200.581.885,199.317Z" transform="translate(0 -194.578)" fill="#2a2a2a"/>
      <path id="Path_35" data-name="Path 35" d="M416.352,199.317q-1.79,1.211-3.043,2.086l3.919,3.919v-6.767A4.834,4.834,0,0,1,416.352,199.317Z" transform="translate(-401.529 -194.578)" fill="#2a2a2a"/>
      <path id="Path_36" data-name="Path 36" d="M14.3,59.013H1.408a1.251,1.251,0,0,0-1.038.455,1.768,1.768,0,0,0-.364,1.139,2.047,2.047,0,0,0,.482,1.2,4.346,4.346,0,0,0,1.025,1.012q.3.21,1.8,1.248c.539.374,1.008.7,1.411.98l.884.619.131.093.242.174q.285.206.473.333t.456.285a2.658,2.658,0,0,0,.5.237,1.394,1.394,0,0,0,.438.079h.017a1.394,1.394,0,0,0,.438-.079,2.652,2.652,0,0,0,.5-.237q.267-.158.456-.285t.473-.333l.241-.174.131-.093.887-.616,3.213-2.231a4.167,4.167,0,0,0,1.069-1.077,2.318,2.318,0,0,0,.429-1.323,1.413,1.413,0,0,0-1.4-1.4Z" transform="translate(-0.006 -59.013)" fill="#2a2a2a"/>
    </g>
  </g>
</svg>
