<svg id="settings-gears" xmlns="http://www.w3.org/2000/svg" width="23.854" height="23.612" viewBox="0 0 23.854 23.612">
  <path id="Path_38" data-name="Path 38" d="M1.567,13.356a5.808,5.808,0,0,0,.519,1.233l-.627.791a.649.649,0,0,0,.049.86l1.08,1.08a.646.646,0,0,0,.86.049l.786-.622a5.708,5.708,0,0,0,1.282.543L5.633,18.3a.647.647,0,0,0,.642.573H7.8a.647.647,0,0,0,.642-.573l.113-.975a5.774,5.774,0,0,0,1.374-.555l.76.6a.649.649,0,0,0,.86-.049l1.08-1.08a.646.646,0,0,0,.049-.86l-.591-.75a5.64,5.64,0,0,0,.566-1.351l.911-.1a.647.647,0,0,0,.573-.642V11.007a.647.647,0,0,0-.573-.642l-.9-.1a5.676,5.676,0,0,0-.542-1.336l.553-.7a.649.649,0,0,0-.049-.86L11.552,6.288a.646.646,0,0,0-.86-.049l-.678.537a5.7,5.7,0,0,0-1.4-.589l-.1-.878a.647.647,0,0,0-.642-.573H6.337a.647.647,0,0,0-.642.573l-.1.878A5.671,5.671,0,0,0,4.152,6.8l-.7-.558a.649.649,0,0,0-.86.049l-1.08,1.08a.646.646,0,0,0-.049.86l.589.745a5.567,5.567,0,0,0-.532,1.349l-.942.107A.647.647,0,0,0,0,11.071V12.6a.647.647,0,0,0,.573.642ZM7.1,9.223a2.526,2.526,0,1,1-2.526,2.526A2.529,2.529,0,0,1,7.1,9.223Z" transform="translate(-0.001 -4.737)" fill="#fff"/>
  <path id="Path_39" data-name="Path 39" d="M487.9,289.511l-.806-.681a.638.638,0,0,0-.85.023l-.445.417a4.6,4.6,0,0,0-1.187-.384l-.125-.614a.644.644,0,0,0-.681-.512l-1.052.09a.641.641,0,0,0-.586.617l-.02.624a4.616,4.616,0,0,0-1.134.6l-.532-.353a.639.639,0,0,0-.842.12l-.681.811a.638.638,0,0,0,.023.85l.466.5a4.768,4.768,0,0,0-.343,1.136l-.665.136a.644.644,0,0,0-.512.681l.09,1.052a.641.641,0,0,0,.617.586l.719.023a4.7,4.7,0,0,0,.509.972l-.4.606a.639.639,0,0,0,.12.842l.806.681a.638.638,0,0,0,.85-.023l.527-.494a4.621,4.621,0,0,0,1.082.353l.146.722a.643.643,0,0,0,.681.512l1.052-.09a.641.641,0,0,0,.586-.617l.023-.706a4.73,4.73,0,0,0,1.082-.548l.581.384a.639.639,0,0,0,.842-.12l.681-.806a.638.638,0,0,0-.023-.85l-.468-.5a4.607,4.607,0,0,0,.368-1.141l.64-.13a.644.644,0,0,0,.512-.681l-.09-1.052a.641.641,0,0,0-.617-.586l-.642-.02a4.649,4.649,0,0,0-.535-1.054l.351-.527A.636.636,0,0,0,487.9,289.511Zm-3.964,6.08a2.067,2.067,0,1,1,1.886-2.234A2.068,2.068,0,0,1,483.932,295.592Z" transform="translate(-465.691 -280.516)" fill="#fff"/>
  <path id="Path_40" data-name="Path 40" d="M182.878,562.462a.639.639,0,0,0-.573.63l-.008.647a.638.638,0,0,0,.558.642l.476.061a3.692,3.692,0,0,0,.338.827l-.307.379a.638.638,0,0,0,.038.85l.453.463a.639.639,0,0,0,.85.059l.381-.294a3.733,3.733,0,0,0,.85.371l.051.491a.639.639,0,0,0,.63.573l.647.008a.638.638,0,0,0,.642-.558l.059-.466a3.848,3.848,0,0,0,.921-.358l.358.289a.638.638,0,0,0,.85-.038l.463-.453a.639.639,0,0,0,.059-.85l-.274-.356a3.713,3.713,0,0,0,.389-.9l.425-.044a.639.639,0,0,0,.573-.63l.008-.647a.638.638,0,0,0-.558-.642l-.415-.054a3.856,3.856,0,0,0-.351-.9l.258-.317a.638.638,0,0,0-.038-.85l-.453-.463a.639.639,0,0,0-.85-.059l-.31.238a3.764,3.764,0,0,0-.931-.4l-.041-.4a.639.639,0,0,0-.63-.573l-.647-.008a.638.638,0,0,0-.642.558l-.051.4a3.869,3.869,0,0,0-.965.394l-.32-.261a.638.638,0,0,0-.85.038l-.466.456a.639.639,0,0,0-.059.85l.274.353a3.745,3.745,0,0,0-.366.9Zm4.179-.732a1.684,1.684,0,1,1-1.7,1.663A1.685,1.685,0,0,1,187.057,561.731Z" transform="translate(-177.632 -544.557)" fill="#fff"/>
</svg>
