<svg xmlns="http://www.w3.org/2000/svg" width="147.669" height="56.343" viewBox="0 0 147.669 56.343">
  <g id="Group_545" data-name="Group 545" transform="translate(-6088.5 256.544)">
    <text id="Clinical_Trials_Logistics_Specialists" data-name="Clinical Trials Logistics Specialists" transform="translate(6090.5 -203.201)" font-size="9" font-family="OpenSans-SemiBold, Open Sans" font-weight="600"><tspan x="0" y="0">Clinical Trials Logistics Specialists</tspan></text>
    <g id="ctls_logo" data-name="ctls logo" transform="translate(6088.5 -256.544)">
      <path id="Path_52" data-name="Path 52" d="M43.855,49.477a36.31,36.31,0,0,0,6.071-.512,26.108,26.108,0,0,1-3.889,1.89A30.828,30.828,0,0,1,34.8,52.927c-13.971,0-25.3-8.936-25.3-19.957S20.826,13,34.8,13a30.375,30.375,0,0,1,12.374,2.56,24.311,24.311,0,0,1,2.755,1.4,36.309,36.309,0,0,0-6.071-.512C30.347,16.45,19.4,23.85,19.4,32.97S30.347,49.477,43.855,49.477Z" transform="translate(-9.5 -13)" fill="#3b3d3c"/>
      <path id="Path_53" data-name="Path 53" d="M43.156,49.1a36.309,36.309,0,0,0,6.071-.512,26.107,26.107,0,0,1-3.889,1.89,40.038,40.038,0,0,1-5.035.3c-15.251,0-27.614-8.071-27.614-18.031S25.052,14.72,40.3,14.72a40.562,40.562,0,0,1,6.169.463,24.313,24.313,0,0,1,2.755,1.4,36.309,36.309,0,0,0-6.071-.512c-13.508,0-24.456,7.4-24.456,16.519S29.648,49.1,43.156,49.1Z" transform="translate(-8.801 -12.623)" fill="#15ac98"/>
      <path id="Path_54" data-name="Path 54" d="M58.315,32.349c0,.475-.024.951-.061,1.414a17.165,17.165,0,0,1-3.609,8.961c-.11.123-.2.244-.3.354-.134.158-.256.318-.4.477a22.53,22.53,0,0,1-5.779,4.779l-.012.012a36.309,36.309,0,0,1-6.071.512c-13.508,0-24.456-7.4-24.456-16.507S28.568,15.831,42.076,15.831a36.309,36.309,0,0,1,6.071.512l.012.012a22.849,22.849,0,0,1,5.767,4.767c.146.158.28.329.415.488.1.11.2.232.293.354a17.221,17.221,0,0,1,3.621,8.973C58.291,31.4,58.315,31.874,58.315,32.349Z" transform="translate(-7.721 -12.38)" fill="#fdfefc"/>
      <path id="Path_55" data-name="Path 55" d="M56.807,31.444c0,.475-.024.951-.061,1.414a17.165,17.165,0,0,1-3.609,8.961c-.11.123-.2.244-.3.354-.134.158-.256.318-.4.477a42.607,42.607,0,0,1-4.877.268c-12.728,0-23.054-5.133-23.054-11.472S34.826,19.961,47.554,19.961a45.074,45.074,0,0,1,4.864.256c.146.158.28.329.414.488.1.11.2.232.293.354a17.221,17.221,0,0,1,3.621,8.973C56.783,30.493,56.807,30.969,56.807,31.444Z" transform="translate(-6.213 -11.475)" fill="#18ab94"/>
      <path id="Path_56" data-name="Path 56" d="M51.62,20.86a16.5,16.5,0,0,1,.012,20.762C40.209,40.988,31.37,36.587,31.37,31.247S40.2,21.494,51.62,20.86Z" transform="translate(-4.707 -11.278)" fill="#3b3d3c"/>
      <g id="Group_199" data-name="Group 199" transform="translate(61.469 11.228)">
        <path id="Path_57" data-name="Path 57" d="M69.771,26.562H81.3V22.21H69.771c-5.62,0-9.851,4.415-9.851,10.26s4.23,10.273,9.851,10.273H81.3V38.39H69.771c-3.243,0-5.584-2.487-5.584-5.919A5.561,5.561,0,0,1,69.771,26.562Z" transform="translate(-59.92 -22.21)" fill="#060606"/>
      </g>
      <path id="Path_58" data-name="Path 58" d="M97.865,22.25H78.917v4.267h7.34V42.734h4.267V26.517h7.34Z" transform="translate(5.712 -10.973)" fill="#060606"/>
      <g id="Group_200" data-name="Group 200" transform="translate(105.228 11.228)">
        <path id="Path_59" data-name="Path 59" d="M113.3,42.743H95.813V22.21h4.267V38.476H113.3Z" transform="translate(-95.813 -22.21)" fill="#060606"/>
      </g>
      <g id="Group_201" data-name="Group 201" transform="translate(124.404 11.276)">
        <path id="Path_60" data-name="Path 60" d="M128.508,42.734H112.659V38.56h15.849a1.991,1.991,0,1,0,0-3.981H117.843a6.167,6.167,0,1,1,0-12.33h14.832v4.174H117.843a1.99,1.99,0,1,0,0,3.979h10.665a6.167,6.167,0,1,1,0,12.332Z" transform="translate(-111.542 -22.249)" fill="#060606"/>
      </g>
    </g>
  </g>
</svg>
