<svg xmlns="http://www.w3.org/2000/svg" width="20.5" height="26.191" viewBox="0 0 20.5 26.191">
  <g id="Manage_Client" data-name="Manage Client" transform="translate(-7709.753 -10569.704)">
    <g id="man-user" transform="translate(7709.753 10569.704)" opacity="0.75">
      <path id="Path_77" data-name="Path 77" d="M108.862,12.027c2.39,0,4.327-2.692,4.327-6.013S112.554,0,108.862,0s-4.327,2.692-4.327,6.013S106.473,12.027,108.862,12.027Z" transform="translate(-100.134)" fill="#2a2a2a"/>
      <path id="Path_78" data-name="Path 78" d="M41.9,300.476c0-.2,0-.057,0,0Z" transform="translate(-41.895 -280.869)" fill="#2a2a2a"/>
      <path id="Path_79" data-name="Path 79" d="M308.085,301.67c0-.055,0-.385,0,0Z" transform="translate(-290.629 -281.905)" fill="#2a2a2a"/>
      <path id="Path_80" data-name="Path 80" d="M59.353,186.218c-.086-5.785-.791-7.434-6.187-8.478a3.605,3.605,0,0,1-5.061,0c-5.338,1.032-6.086,2.656-6.184,8.29-.008.46-.012.484-.013.431,0,.1,0,.285,0,.608,0,0,1.285,2.775,8.727,2.775s8.727-2.775,8.727-2.775c0-.207,0-.352,0-.45A3.981,3.981,0,0,1,59.353,186.218Z" transform="translate(-41.907 -166.854)" fill="#2a2a2a"/>
    </g>
    <g id="Group_439" data-name="Group 439" transform="translate(7719.753 10585.397)">
      <ellipse id="Ellipse_5" data-name="Ellipse 5" cx="1.74" cy="1.74" rx="1.74" ry="1.74" transform="translate(3.306 3.209)" fill="#5f5f5f"/>
      <path id="Path_82" data-name="Path 82" d="M1.109,10.833a4.108,4.108,0,0,0,.367.872l-.443.559a.459.459,0,0,0,.034.608l.764.764a.457.457,0,0,0,.608.034l.556-.44a4.037,4.037,0,0,0,.907.384l.083.715a.458.458,0,0,0,.454.405H5.519a.458.458,0,0,0,.454-.405l.08-.69a4.084,4.084,0,0,0,.972-.393l.538.425a.459.459,0,0,0,.608-.034l.764-.764a.457.457,0,0,0,.034-.608l-.418-.53a3.989,3.989,0,0,0,.4-.956l.644-.074A.458.458,0,0,0,10,10.252V9.171A.458.458,0,0,0,9.6,8.717L8.96,8.643A4.015,4.015,0,0,0,8.576,7.7L8.967,7.2A.459.459,0,0,0,8.933,6.6l-.762-.762A.457.457,0,0,0,7.563,5.8l-.48.38a4.028,4.028,0,0,0-.994-.416l-.072-.621a.458.458,0,0,0-.454-.405H4.482a.458.458,0,0,0-.454.405l-.072.621a4.011,4.011,0,0,0-1.019.431l-.5-.395a.459.459,0,0,0-.608.034L1.067,6.6a.457.457,0,0,0-.034.608l.416.527a3.937,3.937,0,0,0-.376.954l-.666.076A.458.458,0,0,0,0,9.217V10.3a.458.458,0,0,0,.405.454ZM5.024,7.91A1.786,1.786,0,1,1,3.237,9.7,1.789,1.789,0,0,1,5.024,7.91Z" transform="translate(-0.001 -4.737)" fill="#5f5f5f" stroke="#fff" stroke-linecap="round" stroke-linejoin="round" stroke-width="1"/>
    </g>
  </g>
</svg>
