<svg xmlns="http://www.w3.org/2000/svg" width="17.415" height="16.327" viewBox="0 0 17.415 16.327">
  <g id="printer-" transform="translate(0 -0.5)" opacity="0.75">
    <g id="Group_437" data-name="Group 437" transform="translate(0 0.5)">
      <path id="Path_72" data-name="Path 72" d="M4,12.677v3.265h8.708V10.5H4Zm1.088-1.088h6.531v1.088H5.088Zm0,2.177h6.531v1.088H5.088Z" transform="translate(0.354 0.384)" fill="#2a2a2a"/>
      <path id="Path_73" data-name="Path 73" d="M12.708,3.765V.5H4V5.942h8.708Z" transform="translate(0.354 -0.5)" fill="#2a2a2a"/>
      <path id="Path_74" data-name="Path 74" d="M15.238,3.5H14.15V6.765H3.265V3.5H2.177A2.341,2.341,0,0,0,0,5.677v5.442A2.341,2.341,0,0,0,2.177,13.3H3.265V10.031H14.15V13.3h1.088a2.341,2.341,0,0,0,2.177-2.177V5.677A2.341,2.341,0,0,0,15.238,3.5Z" transform="translate(0 -0.235)" fill="#2a2a2a"/>
    </g>
  </g>
</svg>
