<svg xmlns="http://www.w3.org/2000/svg" width="14.672" height="16.768" viewBox="0 0 14.672 16.768">
  <path id="trash-alt-regular" d="M8.777,13.624h.786a.393.393,0,0,0,.393-.393V6.157a.393.393,0,0,0-.393-.393H8.777a.393.393,0,0,0-.393.393v7.074A.393.393,0,0,0,8.777,13.624Zm5.371-11h-2.7L10.335.763A1.572,1.572,0,0,0,8.987,0h-3.3A1.572,1.572,0,0,0,4.337.763L3.223,2.62H.524A.524.524,0,0,0,0,3.144v.524a.524.524,0,0,0,.524.524h.524v11A1.572,1.572,0,0,0,2.62,16.767h9.432A1.572,1.572,0,0,0,13.624,15.2v-11h.524a.524.524,0,0,0,.524-.524V3.144A.524.524,0,0,0,14.147,2.62Zm-8.52-.953a.2.2,0,0,1,.169-.1H8.875a.2.2,0,0,1,.169.1l.572.953H5.056ZM12.052,15.2H2.62v-11h9.432ZM5.109,13.624h.786a.393.393,0,0,0,.393-.393V6.157a.393.393,0,0,0-.393-.393H5.109a.393.393,0,0,0-.393.393v7.074A.393.393,0,0,0,5.109,13.624Z" fill="#5f5f5f"/>
</svg>
