<svg xmlns="http://www.w3.org/2000/svg" width="28.571" height="20" viewBox="0 0 28.571 20">
  <path id="users-solid" d="M4.286,40.571a2.857,2.857,0,1,0-2.857-2.857A2.86,2.86,0,0,0,4.286,40.571Zm20,0a2.857,2.857,0,1,0-2.857-2.857A2.86,2.86,0,0,0,24.286,40.571ZM25.714,42H22.857a2.849,2.849,0,0,0-2.013.83A6.53,6.53,0,0,1,24.2,47.714h2.946a1.427,1.427,0,0,0,1.429-1.429V44.857A2.86,2.86,0,0,0,25.714,42ZM14.286,42a5,5,0,1,0-5-5A5,5,0,0,0,14.286,42Zm3.429,1.429h-.371a6.9,6.9,0,0,1-6.116,0h-.371a5.144,5.144,0,0,0-5.143,5.143v1.286A2.143,2.143,0,0,0,7.857,52H20.714a2.143,2.143,0,0,0,2.143-2.143V48.571A5.144,5.144,0,0,0,17.714,43.429Zm-9.987-.6A2.849,2.849,0,0,0,5.714,42H2.857A2.86,2.86,0,0,0,0,44.857v1.429a1.427,1.427,0,0,0,1.429,1.429H4.371A6.546,6.546,0,0,1,7.728,42.83Z" transform="translate(0 -32)" fill="#5f5f5f"/>
</svg>
