<svg id="dashboard" xmlns="http://www.w3.org/2000/svg" width="20.346" height="15.986" viewBox="0 0 20.346 15.986">
  <path id="Path_37" data-name="Path 37" d="M19.54,61.037a9.994,9.994,0,0,0-5.416-5.416,10.086,10.086,0,0,0-7.9,0A10,10,0,0,0,.806,61.037,10.15,10.15,0,0,0,1.6,70.472a.691.691,0,0,0,.613.329H18.132a.691.691,0,0,0,.613-.329,10.15,10.15,0,0,0,.8-9.435ZM9.145,56.694a1.453,1.453,0,1,1-.426,1.027A1.4,1.4,0,0,1,9.145,56.694ZM3.934,66.016a1.4,1.4,0,0,1-1.028.426,1.4,1.4,0,0,1-1.027-.426,1.453,1.453,0,0,1,0-2.055,1.4,1.4,0,0,1,1.027-.426,1.4,1.4,0,0,1,1.028.426,1.453,1.453,0,0,1,0,2.055Zm2.18-5.087a1.453,1.453,0,0,1-2.055,0,1.453,1.453,0,0,1,1.028-2.481,1.453,1.453,0,0,1,1.028,2.481Zm6.432.1L11.4,65.363a2.159,2.159,0,0,1,.818,1.033,2.184,2.184,0,0,1-.943,2.657,2.122,2.122,0,0,1-1.658.227,2.085,2.085,0,0,1-1.328-1.01,2.174,2.174,0,0,1,.488-2.776A2.158,2.158,0,0,1,9.991,65l1.147-4.337a.717.717,0,0,1,.34-.449.677.677,0,0,1,.545-.074.744.744,0,0,1,.522.886Zm1.686-.1a1.452,1.452,0,1,1,1.028.426A1.4,1.4,0,0,1,14.232,60.929Zm4.235,5.087a1.453,1.453,0,1,1,.426-1.028A1.4,1.4,0,0,1,18.467,66.016Z" transform="translate(0 -54.815)" fill="#fff"/>
</svg>
