<svg id="shopping-list_1_" data-name="shopping-list (1)" xmlns="http://www.w3.org/2000/svg" width="12.99" height="17.32" viewBox="0 0 12.99 17.32">
  <g id="Group_85" data-name="Group 85" transform="translate(3.248)">
    <g id="Group_84" data-name="Group 84">
      <path id="Path_44" data-name="Path 44" d="M165.954,1.083h-1.176a1.624,1.624,0,0,0-3.062,0h-1.175a.541.541,0,0,0-.541.541V3.789a.541.541,0,0,0,.541.541h5.413a.541.541,0,0,0,.541-.541V1.624A.541.541,0,0,0,165.954,1.083Z" transform="translate(-160)" fill="#fff"/>
    </g>
  </g>
  <g id="Group_87" data-name="Group 87" transform="translate(0 2.165)">
    <g id="Group_86" data-name="Group 86">
      <path id="Path_45" data-name="Path 45" d="M75.908,64H74.825v1.624A1.626,1.626,0,0,1,73.2,67.248H67.789a1.626,1.626,0,0,1-1.624-1.624V64H65.083A1.084,1.084,0,0,0,64,65.083v12.99a1.071,1.071,0,0,0,1.083,1.083H75.908a1.071,1.071,0,0,0,1.083-1.083V65.083A1.071,1.071,0,0,0,75.908,64Zm-5.571,9.585L68.172,75.75a.544.544,0,0,1-.766,0l-1.083-1.083a.541.541,0,1,1,.765-.765l.7.7,1.782-1.782a.542.542,0,0,1,.766.765Zm0-4.33L68.172,71.42a.544.544,0,0,1-.766,0l-1.083-1.083a.541.541,0,0,1,.765-.765l.7.7,1.782-1.782a.542.542,0,0,1,.766.765Zm3.947,5.571H72.119a.541.541,0,1,1,0-1.083h2.165a.541.541,0,0,1,0,1.083Zm0-4.33H72.119a.541.541,0,1,1,0-1.083h2.165a.541.541,0,0,1,0,1.083Z" transform="translate(-64 -64)" fill="#fff"/>
    </g>
  </g>
</svg>
