<svg xmlns="http://www.w3.org/2000/svg" width="19.05" height="16.91" viewBox="0 0 19.05 16.91">
  <path id="user-list_1_" data-name="user-list (1)" d="M18.8,16.616a.962.962,0,0,0-.711-.314H.961A.961.961,0,0,0,0,17.353l.914,9.816a.961.961,0,0,0,.957.872h15.3a.961.961,0,0,0,.957-.872l.914-9.816A.961.961,0,0,0,18.8,16.616Zm-6.068,9.412H6.32a.961.961,0,0,1-.961-.961A2.371,2.371,0,0,1,7.727,22.7h.69a2.3,2.3,0,1,1,2.217,0h.69a2.371,2.371,0,0,1,2.367,2.288c0,.026,0,.053,0,.079A.962.962,0,0,1,12.732,26.028ZM17.2,14.512a.721.721,0,0,1-.721.721H2.571a.721.721,0,1,1,0-1.442H16.48A.721.721,0,0,1,17.2,14.512Zm-1.9-2.66a.721.721,0,0,1-.721.721H4.474a.721.721,0,1,1,0-1.442h10.1A.721.721,0,0,1,15.3,11.852Z" transform="translate(0 -11.131)" fill="#fff"/>
</svg>
