<svg xmlns="http://www.w3.org/2000/svg" width="18.28" height="18.281" viewBox="0 0 18.28 18.281">
  <g id="logout_2_" data-name="logout (2)" opacity="0.75">
    <g id="Group_83" data-name="Group 83" transform="translate(0)">
      <g id="Group_82" data-name="Group 82">
        <path id="Path_42" data-name="Path 42" d="M306.239,152.095a.771.771,0,0,0-.165-.248l-2.284-2.284a.762.762,0,1,0-1.077,1.077l.985.985h-4.255a.762.762,0,0,0,0,1.523H303.7l-.985.985a.762.762,0,1,0,1.077,1.077l2.284-2.284a.764.764,0,0,0,.165-.83Z" transform="translate(-288.016 -144.007)" fill="#2a2a2a"/>
        <path id="Path_43" data-name="Path 43" d="M12.963,10.664a.761.761,0,0,0-.762.762v3.809H9.155V3.047a.763.763,0,0,0-.543-.73L5.966,1.523H12.2V5.332a.762.762,0,0,0,1.523,0V.762A.761.761,0,0,0,12.963,0H.776A.679.679,0,0,0,.7.014.752.752,0,0,0,.374.127C.358.138.337.139.321.151S.313.164.306.168A.755.755,0,0,0,.1.409.622.622,0,0,0,.083.473a.722.722,0,0,0-.06.178.474.474,0,0,0,0,.066C.024.733.014.746.014.762V16a.761.761,0,0,0,.612.746l7.617,1.523a.709.709,0,0,0,.149.015.762.762,0,0,0,.762-.762v-.762h3.809A.761.761,0,0,0,13.725,16v-4.57A.761.761,0,0,0,12.963,10.664Z" transform="translate(-0.014)" fill="#2a2a2a"/>
      </g>
    </g>
  </g>
</svg>
