<svg xmlns="http://www.w3.org/2000/svg" width="18.491" height="18.399" viewBox="0 0 18.491 18.399">
  <g id="edit_white" transform="translate(0)">
    <path id="Path_75" data-name="Path 75" d="M17.067,48.927a.461.461,0,0,0-.461.461v4.089a1.383,1.383,0,0,1-1.382,1.382H2.3A1.383,1.383,0,0,1,.921,53.476v-12A1.383,1.383,0,0,1,2.3,40.093H6.392a.461.461,0,0,0,0-.921H2.3a2.305,2.305,0,0,0-2.3,2.3v12a2.305,2.305,0,0,0,2.3,2.3H15.225a2.305,2.305,0,0,0,2.3-2.3V49.387a.461.461,0,0,0-.461-.461Zm0,0" transform="translate(0 -37.38)" fill="#fff"/>
    <path id="Path_76" data-name="Path 76" d="M120.553.868a2.072,2.072,0,0,0-2.931,0l-8.216,8.216a.46.46,0,0,0-.118.2l-1.08,3.9a.46.46,0,0,0,.567.567l3.9-1.081a.46.46,0,0,0,.2-.118l8.216-8.217a2.075,2.075,0,0,0,0-2.931ZM110.409,9.384l6.725-6.725L119.3,4.828l-6.725,6.725Zm-.433.869,1.733,1.733-2.4.664Zm10.466-6.565-.488.488-2.169-2.169.489-.488a1.151,1.151,0,0,1,1.628,0l.541.54A1.153,1.153,0,0,1,120.442,3.688Zm0,0" transform="translate(-103.208 -0.261)" fill="#fff"/>
  </g>
</svg>
