<svg xmlns="http://www.w3.org/2000/svg" width="18" height="18.938" viewBox="0 0 18 18.938">
  <g id="printer_Green" transform="translate(0 0)">
    <g id="Group_401" data-name="Group 401">
      <path id="Path_66" data-name="Path 66" d="M27.151,3.882h-.487V2.8a2.8,2.8,0,0,0-2.8-2.8H17.991a2.8,2.8,0,0,0-2.8,2.8V3.882h-.444a2.8,2.8,0,0,0-2.8,2.8v4.514a2.8,2.8,0,0,0,2.8,2.8h.44v3.548a1.4,1.4,0,0,0,1.4,1.4h8.678a1.4,1.4,0,0,0,1.4-1.4V13.993h.491a2.8,2.8,0,0,0,2.8-2.8V6.68A2.8,2.8,0,0,0,27.151,3.882ZM16.248,2.8A1.742,1.742,0,0,1,17.987,1.06h5.872A1.742,1.742,0,0,1,25.6,2.8V3.882H16.248ZM25.6,17.549a.34.34,0,0,1-.338.338H16.585a.34.34,0,0,1-.338-.338V11.7H25.6ZM28.89,11.2a1.742,1.742,0,0,1-1.739,1.739h-.487V11.7h.7a.53.53,0,1,0,0-1.06H14.411a.53.53,0,1,0,0,1.06h.781v1.24h-.444A1.742,1.742,0,0,1,13.01,11.2V6.684a1.742,1.742,0,0,1,1.739-1.739h12.4A1.742,1.742,0,0,1,28.89,6.684Z" transform="translate(-11.95)" fill="#1aaa98"/>
      <path id="Path_67" data-name="Path 67" d="M141.251,338.6H148.9a.6.6,0,1,0,0-1.2h-7.647a.6.6,0,1,0,0,1.2Z" transform="translate(-136.115 -324.262)" fill="#1aaa98"/>
      <path id="Path_68" data-name="Path 68" d="M149.9,392.6h-7.651a.6.6,0,1,0,0,1.2H149.9a.6.6,0,0,0,0-1.2Z" transform="translate(-137.079 -377.661)" fill="#1aaa98"/>
      <path id="Path_69" data-name="Path 69" d="M359.869,151.9h-1.219a.6.6,0,1,0,0,1.2h1.219a.6.6,0,1,0,0-1.2Z" transform="translate(-345.055 -145.985)" fill="#1aaa98"/>
    </g>
  </g>
</svg>
